<?xml version="1.0" encoding="UTF-8"?>
<!-- Created with Inkscape (http://www.inkscape.org/) -->
<svg width="512" height="512" version="1.1" viewBox="0 0 512 512" xmlns="http://www.w3.org/2000/svg" xmlns:cc="http://creativecommons.org/ns#" xmlns:dc="http://purl.org/dc/elements/1.1/" xmlns:rdf="http://www.w3.org/1999/02/22-rdf-syntax-ns#" xmlns:xlink="http://www.w3.org/1999/xlink">
 <title>TechVerse Logo</title>
 <defs>
  <linearGradient id="linearGradient23189" x1="34.039" x2="107.32" y1="48.596" y2="48.596" gradientTransform="matrix(3.7795 0 0 3.7795 -11.809 67.91)" gradientUnits="userSpaceOnUse">
   <stop stop-color="#8d53d5" offset="0"/>
   <stop stop-color="#4491ec" offset=".61963"/>
   <stop stop-color="#2c77eb" offset="1"/>
  </linearGradient>
  <linearGradient id="linearGradient26763" x1="16.388" x2="125.05" y1="48.581" y2="48.581" gradientTransform="matrix(3.7795 0 0 3.7795 -11.809 67.91)" gradientUnits="userSpaceOnUse">
   <stop stop-color="#2166f2" stop-opacity=".98256" offset=".34663"/>
   <stop stop-color="#653aeb" stop-opacity=".93023" offset="1"/>
  </linearGradient>
 </defs>
 <g>
  <ellipse cx="255.33" cy="251.58" rx="138.49" ry="138.57" fill="url(#linearGradient23189)"/>
  <path d="m392.57 139.45a79.524 220.03 67.348 0 0-50.346 4.1113 138.57 139.09 69.837 0 1 21.711 21.645c4.0219-0.11165 9.2672-0.34991 14.891-0.36132 24.654-0.05 56.197 4.303 20.057 43.219l-9.6308 8.9688 0.0151 0.0644c-64.215 53.243-146.22 92.153-252.01 108.42l-0.0488-0.10741a138.57 139.09 69.837 0 1-0.27538-0.47656c-41.402 1.2156-58.476-9.504-32.695-39.32 4.3674-4.934 8.7403-9.8413 13.521-12.5a138.57 139.09 69.837 0 1-0.81642-35.34 79.524 220.03 67.348 0 0-43.873 117.6 79.524 220.03 67.348 0 0 276.73-61.625 79.524 220.03 67.348 0 0 88.072-146.07 79.524 220.03 67.348 0 0-45.305-8.2226z" fill="url(#linearGradient26763)"/>
 </g>
 <metadata>
  <rdf:RDF>
   <cc:Work rdf:about="">
    <dc:title>TechVerse Logo</dc:title>
    <dc:date>27.5.2023</dc:date>
    <dc:creator>
     <cc:Agent>
      <dc:title>Palash Chatterjee</dc:title>
     </cc:Agent>
    </dc:creator>
   </cc:Work>
  </rdf:RDF>
 </metadata>
</svg>
